<svg width="18" height="18" viewBox="0 0 18 18" fill="none" xmlns="http://www.w3.org/2000/svg">
<path d="M6.75 4C6.75 5.65685 5.40685 7 3.75 7C2.09315 7 0.75 5.65685 0.75 4C0.75 2.34315 2.09315 1 3.75 1C5.40685 1 6.75 2.34315 6.75 4Z" stroke="#6C8947"/>
<path d="M16.75 14C16.75 15.6569 15.4069 17 13.75 17C12.0931 17 10.75 15.6569 10.75 14C10.75 12.3431 12.0931 11 13.75 11C15.4069 11 16.75 12.3431 16.75 14Z" stroke="#6C8947"/>
<path d="M10.75 3C10.75 1.89543 11.6454 1 12.75 1H14.75C15.8546 1 16.75 1.89543 16.75 3V5C16.75 6.10457 15.8546 7 14.75 7H12.75C11.6454 7 10.75 6.10457 10.75 5V3Z" stroke="#6C8947"/>
<path d="M0.75 13C0.75 11.8954 1.64543 11 2.75 11H4.75C5.85457 11 6.75 11.8954 6.75 13V15C6.75 16.1046 5.85457 17 4.75 17H2.75C1.64543 17 0.75 16.1046 0.75 15V13Z" stroke="#6C8947"/>
</svg>
