<svg width="25" height="24" viewBox="0 0 25 24" fill="none" xmlns="http://www.w3.org/2000/svg">
<path d="M21.0926 17.1449C20.7599 17.9135 20.3661 18.6211 19.9098 19.2715C19.2878 20.1583 18.7786 20.7721 18.3861 21.113C17.7777 21.6724 17.1259 21.959 16.4279 21.9753C15.9268 21.9753 15.3225 21.8327 14.6191 21.5434C13.9133 21.2555 13.2648 21.113 12.6717 21.113C12.0498 21.113 11.3827 21.2555 10.6693 21.5434C9.95469 21.8327 9.37904 21.9834 8.93892 21.9984C8.26957 22.0269 7.60239 21.7322 6.93644 21.113C6.51139 20.7422 5.97974 20.1067 5.34285 19.2063C4.65951 18.2449 4.09772 17.13 3.6576 15.8589C3.18624 14.486 2.94995 13.1565 2.94995 11.8694C2.94995 10.3951 3.26853 9.12345 3.90665 8.05784C4.40815 7.20191 5.07533 6.52672 5.91035 6.03105C6.74537 5.53539 7.64761 5.2828 8.61925 5.26664C9.1509 5.26664 9.84809 5.43109 10.7145 5.75429C11.5784 6.07858 12.1332 6.24303 12.3764 6.24303C12.5582 6.24303 13.1745 6.05074 14.2192 5.66738C15.2071 5.31186 16.0409 5.16466 16.724 5.22264C18.5749 5.37202 19.9655 6.10167 20.8902 7.41619C19.2349 8.4192 18.416 9.82403 18.4323 11.6262C18.4472 13.03 18.9565 14.1981 19.9573 15.1256C20.4109 15.5561 20.9174 15.8888 21.481 16.1251C21.3587 16.4795 21.2297 16.819 21.0926 17.1449ZM16.8475 0.440369C16.8475 1.54062 16.4456 2.56792 15.6444 3.51878C14.6775 4.64917 13.508 5.30236 12.2398 5.19929C12.2236 5.06729 12.2142 4.92837 12.2142 4.78239C12.2142 3.72615 12.674 2.59576 13.4906 1.67152C13.8983 1.20356 14.4167 0.814453 15.0455 0.504058C15.6729 0.198295 16.2663 0.0292007 16.8244 0.000244141C16.8407 0.147331 16.8475 0.294426 16.8475 0.440355V0.440369Z" fill="black"/>
</svg>
