<svg width="64" height="43" viewBox="0 0 64 43" fill="none" xmlns="http://www.w3.org/2000/svg">
<path d="M4.57791 42.3704C4.5507 42.3672 4.4585 42.3577 4.373 42.3491C3.59257 42.2707 2.75948 41.9516 2.10459 41.4801C1.12272 40.7732 0.430809 39.7439 0.142205 38.5608C-0.0111617 37.9322 -0.0416429 37.2278 0.0564424 36.5799C0.31944 34.8426 1.46745 33.3545 3.05998 32.6866C3.45742 32.5199 3.85185 32.4145 4.31648 32.3508C4.57403 32.3155 5.20128 32.3153 5.46111 32.3505C6.01213 32.425 6.47917 32.564 6.95903 32.7962C7.48703 33.0516 7.85244 33.3147 8.29473 33.7577C8.68139 34.1451 8.92015 34.4674 9.19697 34.976L9.25586 35.0841L9.04717 35.2385C8.75968 35.4512 8.08532 35.9323 7.86569 36.0815L7.68425 36.2047L7.60962 36.0425C7.51734 35.842 7.45165 35.7231 7.34526 35.5642C6.9202 34.9294 6.24236 34.476 5.50351 34.3323C5.11255 34.2562 4.63124 34.2647 4.24582 34.3544C3.8411 34.4486 3.4016 34.66 3.06586 34.9219C2.93052 35.0275 2.68144 35.2745 2.57186 35.4118C1.98053 36.1528 1.76273 37.0968 1.96552 38.0397C2.03574 38.3661 2.21748 38.7926 2.40708 39.0759C2.90889 39.8256 3.67805 40.3059 4.54928 40.4136C4.70329 40.4327 5.0743 40.4327 5.22831 40.4136C5.99987 40.3182 6.71278 39.9174 7.19993 39.305C7.34339 39.1246 7.44336 38.9685 7.55739 38.7468C7.60736 38.6496 7.65241 38.5702 7.65751 38.5702C7.66261 38.5702 8.01783 38.8208 8.44688 39.1272L9.22699 39.6843L9.14794 39.8338C8.98389 40.1441 8.70167 40.5341 8.43882 40.8138C7.99099 41.2903 7.5548 41.6141 6.98728 41.8913C6.49711 42.1308 5.97771 42.2836 5.42577 42.3505C5.30202 42.3656 4.66589 42.3804 4.57791 42.3704ZM11.2479 37.2984V32.416H13.1415V35.9206H18.0874V32.416H19.981V42.1807H18.0874V37.8848H13.1415V42.1807H11.2479V37.2984ZM21.8941 41.3152C22.1052 40.8391 23.079 38.6421 24.0581 36.4328L25.8384 32.416L27.1668 32.4162L28.4951 32.4163L30.6471 37.2385C31.8308 39.8907 32.8113 42.0876 32.8262 42.1207L32.8532 42.1807H30.5858L30.1481 41.2128L29.7104 40.2449L27.1766 40.2483L24.6428 40.2518L24.21 41.2163L23.7772 42.1807H21.5103L21.8941 41.3152ZM28.9095 38.2749C28.9015 38.2405 27.1812 34.3952 27.1738 34.3953C27.1686 34.3953 25.5348 38.2083 25.5087 38.2814C25.5058 38.2895 26.1591 38.2946 27.209 38.2946C28.6594 38.2946 28.9134 38.2917 28.9095 38.2749ZM34.3808 37.2984V32.416L35.7127 32.4163L37.0446 32.4166L39.1289 35.3441L41.2133 38.2716L41.2169 35.3438L41.2204 32.416H43.1281V42.181L42.3626 42.1773L41.5972 42.1737L38.9535 38.5036C37.4994 36.4851 36.305 34.8333 36.2991 34.833C36.2933 34.8327 36.2885 36.4858 36.2885 38.5066V42.1807H34.3808V37.2984ZM46.5761 37.2984V32.416H53.4015V34.3803H48.4838V36.3304H53.0341V38.2946H48.4838V40.2447H54.1081V42.1807H46.5761V37.2984ZM56.7789 37.2984V32.416H58.6866V40.2447H64V42.1807H56.7789V37.2984ZM24.0867 29.9326C22.0484 29.8383 19.7787 29.2194 17.9489 28.259C16.5441 27.5217 15.4308 26.6966 14.2644 25.5285C13.3509 24.6136 12.677 23.7709 12.1065 22.8301L11.8567 22.4182L12.211 22.2303C12.9014 21.8641 16.0486 20.2526 16.0733 20.2526C16.0871 20.2526 16.2171 20.4296 16.3622 20.6459C18.0023 23.0904 20.5681 24.6806 23.5707 25.1134C24.0957 25.1891 25.6741 25.177 26.2457 25.093C26.8817 24.9995 27.6446 24.826 28.1292 24.6648C28.1607 24.6543 28.1005 24.5564 27.9618 24.393C26.8886 23.1279 25.9102 21.3915 25.3598 19.7749C24.3641 16.8508 24.2932 13.712 25.1563 10.7628C25.6922 8.93138 26.6145 7.15377 27.7826 5.7011C27.9566 5.48468 28.099 5.29373 28.099 5.27678C28.099 5.21914 27.1872 4.97644 26.5896 4.875C25.6663 4.7183 24.2209 4.69887 23.3865 4.83194C21.9824 5.05587 20.5573 5.58171 19.4437 6.28675C18.2028 7.07245 17.1679 8.08214 16.3421 9.31301L15.9775 9.85648L15.5133 9.61281C15.2581 9.47881 14.3098 8.98736 13.406 8.52076C12.5023 8.05416 11.7601 7.6699 11.7566 7.66688C11.7423 7.6542 12.308 6.75431 12.5409 6.41945C13.248 5.40275 14.5037 4.05626 15.4313 3.31988C17.8571 1.39435 20.5538 0.309915 23.5899 0.0390892C24.1531 -0.0111617 25.5495 -0.0115998 26.0928 0.0382837C28.0203 0.215236 29.6726 0.6826 31.3796 1.53363L32.1954 1.94036L32.4687 1.78484C32.91 1.53371 33.6941 1.17137 34.2896 0.943351C35.9604 0.303613 37.6431 -0.000902394 39.5023 2.00848e-06C40.8006 0.000637917 41.8836 0.128201 43.0594 0.418952C45.7157 1.0758 47.981 2.33555 49.9327 4.24128C50.9909 5.27445 51.8201 6.32934 52.4896 7.49395L52.5911 7.67047L50.9397 8.5224C50.0314 8.99098 49.0813 9.48291 48.8283 9.61556L48.3683 9.85678L48.0206 9.33227C46.305 6.74429 43.4987 5.05946 40.4271 4.77326C39.5177 4.68853 38.1675 4.76654 37.3467 4.95125C36.9242 5.04632 36.2385 5.24225 36.2387 5.26782C36.2388 5.28119 36.351 5.4297 36.488 5.59785C38.2482 7.75766 39.3473 10.3904 39.7024 13.2978C39.7872 13.9917 39.7985 15.7634 39.7225 16.4504C39.4018 19.3515 38.3048 22.0288 36.5539 24.1841C36.1569 24.6727 36.1739 24.6389 36.3012 24.6881C36.3613 24.7113 36.6426 24.7891 36.9263 24.861C38.3684 25.2264 39.9207 25.278 41.3782 25.009C44.0291 24.5199 46.4166 22.9521 47.9522 20.6921C48.095 20.4819 48.224 20.2959 48.2388 20.2786C48.2536 20.2614 48.6076 20.4186 49.0254 20.6281C49.8531 21.043 52.4457 22.3846 52.4735 22.4124C52.5198 22.4587 51.6936 23.6852 51.1868 24.3223C50.7071 24.9255 49.4496 26.1815 48.8489 26.6576C46.6778 28.3781 44.2413 29.4301 41.5577 29.8057C38.4763 30.237 35.213 29.6594 32.5578 28.2129L32.1825 28.0085L31.7171 28.2547C29.411 29.4749 26.7658 30.0565 24.0867 29.9326ZM32.6954 21.4564C33.9805 19.8656 34.7824 17.9359 34.98 15.9585C35.0463 15.2949 35.0069 13.943 34.9036 13.3387C34.6194 11.6757 34.0112 10.2504 33.0301 8.94798C32.8454 8.70273 32.5763 8.37484 32.4323 8.2194L32.1703 7.93673L31.9273 8.20028C31.6069 8.54767 31.073 9.25641 30.8039 9.69153C29.4375 11.901 28.9914 14.6153 29.57 17.1988C29.9342 18.8245 30.7713 20.4622 31.8995 21.7558L32.1593 22.0537L32.273 21.9461C32.3355 21.8869 32.5256 21.6665 32.6954 21.4564Z" fill="#070A03"/>
</svg>
