<svg width="25" height="24" viewBox="0 0 25 24" fill="none" xmlns="http://www.w3.org/2000/svg">
<g clip-path="url(#clip0_9651_1656)">
<path d="M24.016 12.2765C24.016 11.4608 23.9499 10.6406 23.8088 9.83813H12.49V14.4591H18.9717C18.7028 15.9495 17.8385 17.2679 16.573 18.1056V21.104H20.44C22.7108 19.014 24.016 15.9274 24.016 12.2765Z" fill="#4285F4"/>
<path d="M12.49 24.0008C15.7264 24.0008 18.4558 22.9382 20.4444 21.1039L16.5774 18.1055C15.5016 18.8375 14.1126 19.252 12.4944 19.252C9.36376 19.252 6.70934 17.1399 5.75693 14.3003H1.76648V17.3912C3.80359 21.4434 7.95278 24.0008 12.49 24.0008Z" fill="#34A853"/>
<path d="M5.75253 14.3002C5.24987 12.8099 5.24987 11.196 5.75253 9.70569V6.61475H1.76649C0.0644896 10.0055 0.0644896 14.0004 1.76649 17.3912L5.75253 14.3002Z" fill="#FBBC04"/>
<path d="M12.49 4.74966C14.2008 4.7232 15.8543 5.36697 17.0933 6.54867L20.5194 3.12262C18.35 1.0855 15.4707 -0.034466 12.49 0.000808666C7.95277 0.000808666 3.80359 2.55822 1.76648 6.61481L5.75252 9.70575C6.70052 6.86173 9.35935 4.74966 12.49 4.74966Z" fill="#EA4335"/>
</g>
<defs>
<clipPath id="clip0_9651_1656">
<rect width="24" height="24" fill="white" transform="translate(0.25)"/>
</clipPath>
</defs>
</svg>
