<svg width="64" height="12" viewBox="0 0 64 12" fill="none" xmlns="http://www.w3.org/2000/svg">
<path fill-rule="evenodd" clip-rule="evenodd" d="M57.9175 10.8538C57.7838 11.0142 57.677 11.1209 57.5833 11.161C57.5033 11.2143 57.3962 11.2277 57.2761 11.2277C57.0356 11.2277 56.8352 11.1476 56.6881 10.9872C56.5403 10.8268 56.4743 10.5596 56.4743 10.1853V9.12899C56.4743 8.74142 56.5403 8.47425 56.6881 8.31381C56.8352 8.15338 57.0356 8.07333 57.2761 8.07333C57.4632 8.07333 57.6103 8.12669 57.7437 8.22042C57.8642 8.31381 57.9575 8.47425 58.0243 8.70139C58.091 8.94188 58.158 9.08897 58.2381 9.16902C58.3851 9.32946 58.6523 9.48989 59.0272 9.66333C59.4015 9.82377 59.8157 9.90381 60.27 9.90381C60.9781 9.90381 61.5535 9.74338 62.0078 9.4095C62.2883 9.20904 62.4354 8.96856 62.4354 8.67471C62.4354 8.47425 62.3554 8.30047 62.2216 8.12669C62.0879 7.95291 61.8607 7.80582 61.5535 7.6984C61.3397 7.61836 60.8847 7.51129 60.1766 7.37753C59.3081 7.21709 58.666 7.02997 58.2251 6.80283C57.7841 6.57569 57.4232 6.2685 57.1694 5.85423C56.9208 5.45294 56.791 4.98941 56.7951 4.51737C56.7951 3.7689 57.1023 3.1138 57.7304 2.5391C58.3718 1.9774 59.1877 1.6969 60.1896 1.6969C60.6039 1.6969 60.9781 1.73692 61.326 1.83065C61.6603 1.9107 61.9808 2.0578 62.2613 2.23157C62.4618 2.03111 62.6756 1.93772 62.876 1.93772C63.1032 1.93772 63.2903 2.01777 63.4381 2.17855C63.5852 2.33899 63.6652 2.60615 63.6652 2.98039V4.17016C63.6652 4.5444 63.5852 4.81156 63.4381 4.98568C63.2903 5.13278 63.1032 5.22617 62.876 5.22617C62.6756 5.22617 62.5151 5.15946 62.3684 5.03905C62.2616 4.959 62.1679 4.78522 62.1145 4.51772C62.0612 4.26355 61.9941 4.07643 61.9007 3.95636C61.7536 3.76924 61.5265 3.59546 61.2326 3.4617C60.9381 3.32795 60.5906 3.27458 60.203 3.27458C59.6283 3.27458 59.1873 3.395 58.8535 3.66251C58.5186 3.92967 58.3585 4.19684 58.3585 4.49103C58.3585 4.69149 58.4252 4.87861 58.5589 5.05239C58.6927 5.23951 58.8931 5.38661 59.161 5.47999C59.3348 5.5467 59.8157 5.66711 60.6309 5.82755C61.4334 5.98833 62.0615 6.16211 62.4891 6.34889C62.9167 6.53566 63.2776 6.82986 63.5722 7.24412C63.8527 7.64504 63.9998 8.12669 63.9998 8.68805C63.9998 9.46321 63.7326 10.0913 63.1839 10.5596C62.4491 11.1743 61.5268 11.4815 60.3904 11.4815C59.9628 11.4815 59.5352 11.4281 59.121 11.3211C58.7034 11.2114 58.2997 11.0546 57.9175 10.8538ZM35.6619 4.87861V9.65033H36.3033C36.7316 9.65033 37.0388 9.71704 37.2126 9.86413C37.3997 10.0253 37.4931 10.2124 37.4931 10.4529C37.4931 10.68 37.3997 10.8805 37.2126 11.0276C37.0388 11.1747 36.7316 11.2414 36.3033 11.2414H33.9909C33.5632 11.2414 33.2561 11.1747 33.0823 11.0276C32.8952 10.8805 32.8151 10.68 32.8151 10.4395C32.8151 10.2124 32.8952 10.0253 33.0689 9.86413C33.2561 9.71704 33.5366 9.65033 33.8975 9.65033V3.38166C33.5903 3.35497 33.3631 3.27458 33.2027 3.12749C33.0423 2.98039 32.9622 2.79327 32.9622 2.57947C32.9622 2.33899 33.0556 2.15187 33.2427 2.00477C33.4165 1.84434 33.7237 1.77763 34.1386 1.77763H36.0762L38.4827 6.60305L40.8479 1.77763H42.7995C43.2271 1.77763 43.5216 1.85768 43.7087 2.00477C43.8825 2.15187 43.9759 2.33899 43.9759 2.57947C43.9759 2.79327 43.8959 2.98039 43.7354 3.12749C43.575 3.27458 43.3479 3.35497 43.0407 3.38166V9.65033C43.4149 9.65033 43.6821 9.71704 43.8692 9.87747C44.043 10.0253 44.1364 10.2124 44.1364 10.4529C44.1364 10.68 44.043 10.8805 43.8558 11.0276C43.6821 11.1747 43.3749 11.2414 42.9466 11.2414H40.6341C40.2065 11.2414 39.9127 11.1747 39.7255 11.0276C39.5518 10.8805 39.4584 10.68 39.4584 10.4395C39.4584 10.2124 39.5518 10.0253 39.7255 9.86413C39.9127 9.71704 40.2065 9.65033 40.6341 9.65033H41.2762V4.87861L39.2446 9.55694H37.7206L35.6619 4.87861ZM24.8217 5.66746H26.0514C26.5061 5.66746 26.907 5.58707 27.2679 5.45366C27.7492 5.26654 28.0697 5.25319 28.2439 5.03939C28.4043 4.83893 28.4977 4.81191 28.4977 4.61179C28.4977 4.30426 28.3372 4.02375 28.0164 3.76958C27.6955 3.51575 27.2409 3.382 26.6265 3.382H24.822L24.8217 5.66746ZM24.8217 7.08436V9.65067H25.3834C25.7709 9.65067 26.0381 9.71738 26.1985 9.86447C26.359 10.0116 26.4394 10.2127 26.4394 10.4532C26.4394 10.6803 26.3593 10.8808 26.1985 11.0279C26.0378 11.175 25.7709 11.2417 25.3834 11.2417H22.9905C22.6162 11.2417 22.3491 11.175 22.1886 11.0279C22.0282 10.8808 21.9482 10.6803 21.9482 10.4399C21.9482 10.2127 22.0282 10.0116 22.1886 9.86447C22.3491 9.71738 22.6162 9.65067 22.9905 9.65067H23.2447V3.38166H22.9905C22.6162 3.38166 22.3491 3.31495 22.1886 3.15417C22.0282 3.00708 21.9482 2.81996 21.9482 2.57947C21.9482 2.33899 22.0282 2.13818 22.1886 1.99143C22.3491 1.84468 22.6162 1.77763 22.9905 1.77763H26.5594C27.9226 1.77763 30.0747 2.29896 30.0747 4.02306C30.0747 5.6938 29.7942 5.60041 28.7111 6.18879C29.553 6.73681 29.9276 7.49829 29.9943 9.65033C30.3952 9.65033 31.0233 9.67701 31.157 9.77074C31.3842 9.93118 31.4912 10.1583 31.4912 10.4529C31.4912 10.68 31.4112 10.8805 31.2641 11.0276C31.1037 11.1747 30.8365 11.2547 30.4486 11.2414L28.0827 11.148C28.0027 8.04733 27.8689 7.01766 26.372 7.08436H24.8217ZM14.476 7.36487V9.66401H18.3792V8.82215C18.3792 8.43457 18.4592 8.1674 18.593 8.00696C18.7401 7.84584 18.9272 7.76579 19.1544 7.76579C19.3682 7.76579 19.5556 7.84584 19.7027 8.00696C19.8498 8.1674 19.9165 8.43457 19.9165 8.82215V11.2414H12.7116C12.3373 11.2414 12.0702 11.1747 11.9231 11.0276C11.7626 10.8805 11.6822 10.6933 11.6822 10.4529C11.6822 10.2257 11.7623 10.0386 11.9231 9.89082C12.0835 9.74372 12.3373 9.66367 12.7116 9.66367H12.9391V3.50207H12.7116C12.3373 3.50207 12.0702 3.43536 11.9231 3.28827C11.7626 3.14117 11.6822 2.95405 11.6822 2.71357C11.6822 2.47274 11.7623 2.28596 11.9231 2.13853C12.0702 1.99143 12.3373 1.92472 12.7116 1.92472H19.582V4.33059C19.582 4.70483 19.5019 4.97234 19.3682 5.13278C19.2344 5.29322 19.0473 5.37327 18.8201 5.37327C18.5797 5.37327 18.4059 5.29322 18.2588 5.13278C18.1117 4.97234 18.045 4.70518 18.045 4.33059V3.50207H14.476V5.78787H15.8259L17.537 5.76119L17.617 7.29817L15.8259 7.36487H14.476ZM49.2823 7.36487V9.66401H53.1988V8.82215C53.1988 8.43457 53.2655 8.1674 53.3993 8.00696C53.5464 7.84584 53.7335 7.76579 53.9606 7.76579C54.1878 7.76579 54.3616 7.84584 54.5093 8.00696C54.6564 8.1674 54.7231 8.43457 54.7231 8.82215V11.2414H47.5185C47.1436 11.2414 46.8898 11.1747 46.7293 11.0276C46.5689 10.8805 46.4889 10.6933 46.4889 10.4529C46.4889 10.2257 46.5689 10.0386 46.7293 9.89082C46.8898 9.74372 47.1569 9.66367 47.5185 9.66367H47.759V3.50207H47.5185C47.1436 3.50207 46.8898 3.43536 46.7293 3.28827C46.5689 3.14117 46.4889 2.95405 46.4889 2.71357C46.4889 2.47274 46.5689 2.28596 46.7293 2.13853C46.8898 1.99143 47.1436 1.92472 47.5185 1.92472H54.3889V4.33059C54.3889 4.70483 54.3222 4.97234 54.1744 5.13278C54.0407 5.29322 53.8536 5.37327 53.6264 5.37327C53.3993 5.37327 53.2122 5.29322 53.0651 5.13278C52.9313 4.97234 52.8513 4.70518 52.8513 4.33059V3.50207H49.2823V5.78787H50.6325L52.3436 5.76119L52.437 7.29817L50.6325 7.36487H49.2823ZM6.62967 7.2578H2.96733V9.61031H3.23449C3.64876 9.61031 3.94295 9.69035 4.11673 9.85079C4.2905 9.99789 4.38389 10.199 4.38389 10.4395C4.38389 10.68 4.2905 10.8671 4.11673 11.0142C3.94295 11.1747 3.64876 11.2414 3.23449 11.2414H1.13616C0.735235 11.2414 0.441385 11.1747 0.253924 11.0142C0.0801453 10.8671 -0.000244141 10.6667 -0.000244141 10.4262C-0.000244141 10.1323 0.13351 9.9045 0.400677 9.73072C0.534432 9.65067 0.828281 9.61031 1.25589 9.61031V3.2479C0.962036 3.22122 0.734893 3.12749 0.574113 2.98073C0.427018 2.83364 0.34697 2.64652 0.34697 2.41938C0.34697 2.17889 0.440701 1.97809 0.614479 1.83133C0.788258 1.68458 1.08279 1.60419 1.49705 1.60419L3.23449 1.61753C3.64876 1.61753 3.94295 1.68424 4.11673 1.83133C4.2905 1.99177 4.38389 2.17889 4.38389 2.41938C4.38389 2.67354 4.2905 2.87401 4.11673 3.02076C3.94295 3.16751 3.64876 3.2479 3.23449 3.2479H2.96733V5.62743H6.62967V3.2479H6.3625C5.94824 3.2479 5.65405 3.16786 5.48027 3.02076C5.30649 2.87366 5.2131 2.6732 5.2131 2.41938C5.2131 2.17889 5.30649 1.97809 5.48027 1.83133C5.65405 1.68458 5.94824 1.60419 6.3625 1.60419L8.10029 1.61753C8.51455 1.61753 8.80874 1.68424 8.98252 1.83133C9.1563 1.99177 9.24969 2.17889 9.24969 2.41938C9.24969 2.64652 9.16964 2.83364 9.02254 2.98073C8.86211 3.12783 8.63496 3.22156 8.34077 3.2479V9.61031C8.78206 9.61031 9.06257 9.66367 9.18264 9.73072C9.46349 9.9045 9.5969 10.1323 9.5969 10.4395C9.5969 10.68 9.50351 10.8671 9.32973 11.0142C9.15595 11.1747 8.86176 11.2414 8.46084 11.2414H6.36216C5.9479 11.2414 5.65371 11.1747 5.47993 11.0142C5.30615 10.8671 5.21276 10.6667 5.21276 10.4262C5.21276 10.1857 5.30615 9.99789 5.47993 9.85079C5.65371 9.69035 5.9479 9.61031 6.36216 9.61031H6.62933L6.62967 7.2578ZM49.5365 0.0135062L51.5681 0.361062C51.8086 0.401086 51.969 0.494816 52.0491 0.628229C52.1158 0.734959 52.1298 0.855372 52.0891 0.989127C52.049 1.1066 51.9685 1.20602 51.862 1.26963C51.7686 1.323 51.6215 1.33668 51.4077 1.29632L49.376 0.948762C49.1356 0.908738 48.9751 0.828347 48.8951 0.694935C48.8284 0.574522 48.815 0.45445 48.855 0.334037C48.8951 0.213966 48.9618 0.106894 49.0822 0.0531869C49.1756 0.000164054 49.3227 -0.0135184 49.5365 0.0135062Z" fill="#070A03"/>
</svg>
