<svg width="25" height="24" viewBox="0 0 25 24" fill="none" xmlns="http://www.w3.org/2000/svg">
<path d="M10.75 7C10.75 8.65685 9.40685 10 7.75 10C6.09315 10 4.75 8.65685 4.75 7C4.75 5.34315 6.09315 4 7.75 4C9.40685 4 10.75 5.34315 10.75 7Z" stroke="#A1A1A1"/>
<path d="M20.75 17C20.75 18.6569 19.4069 20 17.75 20C16.0931 20 14.75 18.6569 14.75 17C14.75 15.3431 16.0931 14 17.75 14C19.4069 14 20.75 15.3431 20.75 17Z" stroke="#A1A1A1"/>
<path d="M14.75 6C14.75 4.89543 15.6454 4 16.75 4H18.75C19.8546 4 20.75 4.89543 20.75 6V8C20.75 9.10457 19.8546 10 18.75 10H16.75C15.6454 10 14.75 9.10457 14.75 8V6Z" stroke="#A1A1A1"/>
<path d="M4.75 16C4.75 14.8954 5.64543 14 6.75 14H8.75C9.85457 14 10.75 14.8954 10.75 16V18C10.75 19.1046 9.85457 20 8.75 20H6.75C5.64543 20 4.75 19.1046 4.75 18V16Z" stroke="#A1A1A1"/>
</svg>
