<svg width="40" height="48" viewBox="0 0 40 48" fill="none" xmlns="http://www.w3.org/2000/svg">
<path fill-rule="evenodd" clip-rule="evenodd" d="M38.7222 43.5032H39.2453V47.9253L36.0477 44.5785V47.7609H35.51V43.2936L38.7222 46.6556V43.5032ZM23.6932 43.5032V46.2071C23.6932 46.6851 23.5585 47.0736 23.2893 47.3727C23.0058 47.7014 22.6174 47.8507 22.1243 47.8507C21.6612 47.8507 21.273 47.7014 20.9887 47.3727C20.7052 47.0736 20.5703 46.6851 20.5703 46.2071V43.5032H21.1085V46.0278C21.1085 46.9093 21.4372 47.3578 22.1243 47.3578C22.8262 47.3578 23.17 46.9093 23.17 46.0278V43.5032H23.6932ZM25.3365 43.5032H27.8911V43.9963H26.8753V47.7611H26.3673V43.9963H25.3365V43.5032ZM24.4103 43.5032H24.948V47.7611H24.4103V43.5032ZM19.7041 43.5032H20.2868L18.4341 48L16.5817 43.5032H17.1644L18.4344 46.6556L19.7041 43.5032ZM34.524 45.6394C34.524 46.1173 34.3595 46.5209 34.0163 46.8644C33.7025 47.1931 33.2992 47.3576 32.8356 47.3576C32.3725 47.3576 31.9691 47.1931 31.6259 46.8644C31.2821 46.5207 31.1179 46.1173 31.1179 45.6394C31.1179 45.1614 31.2672 44.7578 31.5958 44.4291C31.9245 44.0859 32.3429 43.9214 32.8356 43.9214C33.3287 43.9214 33.732 44.0859 34.0458 44.4291C34.3598 44.7578 34.524 45.1611 34.524 45.6394ZM34.4047 44.0707C33.9567 43.6374 33.4336 43.4134 32.8358 43.4134C32.2234 43.4134 31.7008 43.6374 31.2523 44.0707C30.8192 44.5038 30.595 45.0269 30.595 45.6391C30.595 46.2664 30.8195 46.7895 31.2523 47.2226C31.6856 47.6411 32.2085 47.8504 32.8358 47.8504C33.4487 47.8504 33.9862 47.6411 34.4047 47.2226C34.838 46.7895 35.062 46.2664 35.062 45.6391C35.0623 45.0269 34.8383 44.5038 34.4047 44.0707ZM30.4757 43.5032V43.9963H29.4746V47.7611H28.9368V43.9963H27.9211V43.5032H30.4757ZM5.76526 44.4291C6.07903 44.7578 6.22835 45.1614 6.22835 45.6394C6.22835 46.1173 6.0639 46.5209 5.7355 46.8644C5.40684 47.1931 5.00326 47.3576 4.54016 47.3576C4.07707 47.3576 3.67375 47.1931 3.33021 46.8644C3.01643 46.5207 2.83735 46.1173 2.83735 45.6394C2.83735 45.1614 3.00155 44.7578 3.31533 44.4291C3.64399 44.0859 4.04756 43.9214 4.54042 43.9214C5.03328 43.9214 5.45174 44.0859 5.76526 44.4291ZM6.10905 44.0707C5.66084 43.6374 5.13796 43.4134 4.54042 43.4134C3.92775 43.4134 3.39025 43.6374 2.97179 44.0707C2.52357 44.5038 2.29959 45.0269 2.29959 45.6391C2.29959 46.2664 2.52383 46.7895 2.97179 47.2226C3.39025 47.6411 3.91312 47.8504 4.54042 47.8504C5.16798 47.8504 5.69085 47.6411 6.10905 47.2226C6.55727 46.7895 6.76637 46.2664 6.76637 45.6391C6.76637 45.0269 6.55727 44.5038 6.10905 44.0707ZM7.73746 46.0275C7.73746 46.9091 8.081 47.3576 8.76834 47.3576C9.44079 47.3576 9.79921 46.9091 9.79921 46.0275V43.5029H10.3221V46.2069C10.3221 46.6849 10.1876 47.0733 9.90363 47.3724C9.61987 47.7011 9.23143 47.8504 8.76834 47.8504C8.29036 47.8504 7.9168 47.7011 7.63304 47.3724C7.33414 47.0733 7.19996 46.6849 7.19996 46.2069V43.5029H7.73772L7.73746 46.0275ZM0.954686 43.5032V47.2829H2.25444V47.7609H0.431809V43.5029L0.954686 43.5032ZM13.758 45.2509C14.4751 45.5344 14.8189 45.9529 14.8189 46.5207C14.8189 46.9091 14.6844 47.2226 14.4156 47.4769C14.1616 47.7309 13.8478 47.8507 13.4742 47.8507C13.1307 47.8507 12.8318 47.746 12.5781 47.5069C12.3389 47.2829 12.1896 46.9989 12.1447 46.6556L12.6825 46.5358C12.6825 46.7749 12.7571 46.9691 12.9216 47.1336C13.086 47.2829 13.2651 47.3576 13.5042 47.3576C13.7285 47.3576 13.9076 47.2678 14.072 47.1036C14.2065 46.9542 14.2811 46.7598 14.2811 46.5209C14.2811 46.1922 14.042 45.9236 13.5491 45.714L13.2502 45.6099C12.6527 45.3258 12.3389 44.9674 12.3389 44.5189C12.3389 44.1903 12.4734 43.9065 12.7125 43.712C12.9665 43.5032 13.2502 43.4134 13.594 43.4134C14.0869 43.4134 14.4456 43.6374 14.6844 44.0707L14.2662 44.3098C14.1018 44.0558 13.8778 43.9214 13.5789 43.9214C13.3996 43.9214 13.2202 43.966 13.0858 44.0707C12.9365 44.19 12.8616 44.3399 12.8616 44.5187C12.8616 44.7727 13.0558 44.9672 13.474 45.1165L13.758 45.2509ZM11.0392 43.5032H11.5772V47.7611H11.0392V43.5032ZM32.0181 5.01403L21.714 29.334L18.8713 23.0961L24.1221 8.80424C24.517 7.69897 25.8986 7.18558 28.2282 7.18558L29.0569 5.01403H16.8183L16.0286 7.18558C17.7658 7.18558 18.4764 7.69871 18.1999 8.80424L15.5945 16.0686L10.4622 5.01403C9.51468 3.82973 9.9883 3.23732 11.844 3.23732V0.671427H-0.000244141V3.23758C2.21082 3.23758 3.59242 3.82998 4.18482 5.01428L12.8705 23.4912L8.804 34.3482C8.72472 35.8089 6.43514 36.5201 2.01327 36.5201L1.18431 38.6914H34.9791L39.6773 28.7028H37.2295C34.9399 33.8746 32.2947 36.5201 29.3337 36.5201H13.8178L16.1076 30.4005L18.0816 34.3482H22.5035L34.9789 5.01454C35.5713 3.23783 37.1112 2.2906 39.5193 2.2906V0H29.3335V2.29009C32.413 2.29009 33.2817 3.23758 32.0181 5.01403Z" fill="#070A03"/>
</svg>
