<svg width="64" height="10" viewBox="0 0 64 10" fill="none" xmlns="http://www.w3.org/2000/svg">
<path fill-rule="evenodd" clip-rule="evenodd" d="M1.16166 9.93022H0.262558C0.187541 9.93022 0 9.93022 0 9.8177C0 9.74304 0.0375085 9.70517 0.150033 9.66766C0.974486 9.4051 1.16166 8.95573 1.16166 8.31919V1.61176C1.16166 1.012 0.974122 0.56226 0.150033 0.262558C0.0375085 0.262558 0 0.187542 0 0.150034C0 0.000365093 0.187541 0.0375099 0.262558 0.0375099H7.68154C9.36759 0.0375099 10.7543 1.38635 10.7543 3.0724C10.7543 4.75882 9.36759 6.10729 7.68154 6.10729H3.93436V8.39311C3.97223 8.99251 4.15941 9.40438 4.94635 9.66693C5.05888 9.70481 5.09602 9.74231 5.09602 9.81697C5.09602 9.92949 4.90885 9.92949 4.83383 9.92949L1.16166 9.93022ZM56.4685 6.29556H58.2296L56.4685 3.29782L56.2806 2.99775L54.7074 6.29556H56.4685ZM56.4685 0.000730694H57.6677L62.6883 8.8443C62.8383 9.06826 63.0255 9.29367 63.2509 9.40547C63.4381 9.5555 63.6628 9.59337 63.85 9.66803C63.9253 9.7059 64 9.74341 64 9.81806C64 9.93059 63.8128 9.93058 63.7374 9.93058H59.2787C59.204 9.93058 58.9786 9.93059 58.9786 9.81806C58.9786 9.74341 59.054 9.70553 59.1294 9.66803C59.3541 9.59337 59.5034 9.48085 59.578 9.25617C59.6534 8.99361 59.578 8.8443 59.3909 8.50636C59.1364 7.96562 58.8741 7.42856 58.6043 6.89533H54.4074L54.3702 6.96998C54.3323 7.12002 54.033 7.6444 53.8076 8.20666C53.5082 8.80606 53.3957 8.95574 53.4704 9.2558C53.5083 9.48049 53.6951 9.59301 53.9198 9.66766C53.9951 9.70553 54.033 9.74304 54.033 9.8177C54.033 9.93022 53.8451 9.93022 53.7704 9.93022H51.7093C51.6347 9.93022 51.4468 9.93022 51.4468 9.8177C51.4468 9.74304 51.4846 9.70517 51.5968 9.66766C51.7847 9.59301 52.0086 9.55514 52.1962 9.4051C52.4209 9.29331 52.6088 9.06789 52.7581 8.84394L53.0206 8.28131L55.8684 2.32369L55.4558 1.61176C55.0818 1.012 54.7067 0.637277 54.2945 0.412592C54.1073 0.300067 53.9198 0.300067 53.7326 0.225051C53.62 0.187543 53.5825 0.150033 53.62 0.075017C53.62 4.69387e-07 53.6947 0.0375083 53.7326 0L56.4685 0.000730694ZM45.2644 9.89235H45.4145C52.3094 9.89235 52.2348 0.0378738 45.4145 0.0378738H39.7566C39.644 0.0378738 39.4572 0.000364885 39.4572 0.150398C39.4572 0.187906 39.5319 0.262922 39.6065 0.262922C40.431 0.525116 40.6185 0.974851 40.6557 1.53711V8.3942C40.6185 8.99361 40.431 9.40547 39.6065 9.66803C39.5319 9.7059 39.4572 9.74341 39.4572 9.81806C39.4572 9.93059 39.6444 9.93058 39.7566 9.93058H43.3912V9.89271L45.2644 9.89235ZM45.2644 0.749803C46.3143 0.749803 47.1763 1.61177 47.1763 2.66054V7.23217C47.1763 8.28131 46.3143 9.14327 45.2644 9.14327H43.3909V0.749803H45.2644ZM30.9884 6.29556H32.7494L30.9884 3.29782L30.8012 2.99775L29.2277 6.29556H30.9884ZM30.9884 0.000730694H32.2251L37.2461 8.8443C37.3586 9.06826 37.5461 9.29367 37.7708 9.40547C37.958 9.5555 38.1834 9.59337 38.4081 9.66803C38.4827 9.7059 38.5574 9.74341 38.5574 9.81806C38.5574 9.93059 38.3327 9.93058 38.2581 9.93058H33.7997C33.7243 9.93058 33.5371 9.93059 33.5371 9.81806C33.5371 9.74341 33.5743 9.70553 33.6864 9.66803C33.8743 9.59337 34.0611 9.48085 34.099 9.25617C34.1737 8.99361 34.099 8.8443 33.949 8.50636C33.6864 7.94447 33.3871 7.41972 33.1252 6.89533H28.9272L28.8901 6.96998C28.8526 7.12002 28.59 7.6444 28.3278 8.20666C28.0656 8.80606 27.916 8.95574 27.991 9.2558C28.066 9.48049 28.2157 9.59301 28.4407 9.66766C28.5154 9.70553 28.5904 9.74304 28.5904 9.8177C28.5904 9.93022 28.4032 9.93022 28.2911 9.93022H26.2671C26.192 9.93022 25.967 9.93022 25.967 9.8177C25.967 9.74304 26.042 9.70517 26.117 9.66766C26.3421 9.59301 26.5293 9.55514 26.7543 9.4051C26.9415 9.29331 27.1665 9.06789 27.2787 8.84394L27.5409 8.28131L30.4265 2.32369L30.0142 1.61176C29.6395 1.012 29.2273 0.637277 28.8526 0.412592C28.6275 0.300067 28.4779 0.300067 28.2528 0.225051C28.1778 0.187543 28.1028 0.150033 28.1407 0.075017C28.1778 4.69387e-07 28.2528 0.0375083 28.2907 0L30.9884 0.000730694ZM18.623 6.55812C19.485 6.85746 20.5341 6.93211 21.3582 6.67064L24.6185 9.48085L24.8807 9.70553C24.9186 9.74341 24.9186 9.78019 24.9186 9.81806C24.9186 9.93059 24.731 9.93058 24.656 9.93058H21.2089L18.6234 7.7948L16.5247 6.10838V8.43208C16.5626 8.99397 16.7873 9.40583 17.5739 9.66839C17.6489 9.70626 17.6864 9.74377 17.6864 9.81842C17.6864 9.93095 17.4989 9.93095 17.4239 9.93095H12.8897C12.7776 9.93095 12.59 9.93095 12.59 9.81842C12.59 9.74377 12.665 9.7059 12.7397 9.66839C13.6392 9.36905 13.7517 8.91932 13.7888 8.20739V1.72392C13.7513 1.0495 13.6388 0.56226 12.7397 0.262558C12.6647 0.262558 12.59 0.187542 12.59 0.150034C12.59 0.000365093 12.7776 0.0375099 12.8897 0.0375099H20.1966C20.5956 0.0358238 20.991 0.11317 21.36 0.265086C21.729 0.417002 22.0643 0.64048 22.3464 0.922627C22.6286 1.20477 22.8521 1.54 23.0041 1.90898C23.1561 2.27795 23.2334 2.67336 23.2318 3.0724C23.2335 3.47145 23.1561 3.86688 23.0042 4.23588C22.8522 4.60487 22.6287 4.94013 22.3465 5.22228C22.0644 5.50444 21.7291 5.72792 21.3601 5.87982C20.991 6.03171 20.5956 6.10903 20.1966 6.10729H17.8361C17.9486 6.33198 18.2108 6.40736 18.4355 6.51988C18.5105 6.52025 18.548 6.55812 18.623 6.55812ZM18.623 5.39645H18.9227C19.8969 5.39645 20.7213 4.34695 20.7213 2.99775C20.7213 1.68642 19.8969 0.637276 18.9227 0.637276H16.5244V5.39645H18.623ZM6.07015 0.637643H3.93436V5.39682H6.40772C7.41935 5.39682 8.2063 4.34732 8.2063 2.99811C8.2063 1.68678 7.41935 0.637643 6.40772 0.637643H6.07015Z" fill="#070A03"/>
</svg>
